<?xml version="1.0" encoding="utf-8"?>
<!-- Generator: Adobe Illustrator 22.0.0, SVG Export Plug-In . SVG Version: 6.00 Build 0)  -->
<svg version="1.1" id="Layer_1" xmlns="http://www.w3.org/2000/svg" xmlns:xlink="http://www.w3.org/1999/xlink" x="0px" y="0px"
	 viewBox="0 0 595 841" style="enable-background:new 0 0 595 841;" xml:space="preserve">
<style type="text/css">
	.st0{fill:#001E1C;}
	.st1{font-family:'Montserrat-SemiBoldItalic';}
	.st2{font-size:4px;}
	.st3{fill:#F5E9CC;}
	.st4{fill:none;stroke:#000000;stroke-width:0.292;stroke-miterlimit:3.864;}
	.st5{fill:#FFFFFF;}
	.st6{fill:#027D8D;}
	.st7{fill:#CCCCCC;}
	.st8{fill:none;stroke:#433A5F;stroke-width:0.292;stroke-miterlimit:3.864;}
	.st9{fill:#E5E5E5;}
	.st10{fill:none;stroke:#FFFFFF;stroke-width:0.292;stroke-miterlimit:3.864;}
	.st11{fill:#D7A532;}
	.st12{fill:#015864;}
	.st13{fill:#E9CC8B;}
	.st14{fill:none;stroke:#000000;stroke-miterlimit:3.864;}
	.st15{fill:#B3DFDF;}
	.st16{fill:none;stroke:#000000;stroke-width:0.309;stroke-miterlimit:3.864;}
	.st17{fill:none;stroke:#CCCCCC;stroke-width:0.25;stroke-miterlimit:3.864;}
	.st18{fill:none;stroke:#D7A532;stroke-miterlimit:3.864;}
</style>
<text transform="matrix(0.9 0 0 1 453.6318 270.8569)" class="st0 st1 st2">Hospital</text>
<text transform="matrix(0.9 0 0 1 399.2871 392.167)" class="st0 st1 st2">Piscinas</text>
<polygon class="st3" points="456.8,214.8 455,176.3 506.8,179.1 507.4,214.6 "/>
<path class="st3" d="M489.4,165.6l-0.8-19.8l17.8,0.8l-1.4-16.5c0,0-47,2.7-52.5,3.5c-5.5,0.8-39.9,13.9-39.9,13.9l2.7-15.7
	l-115.9,37.9c0,0-30.6,7.6-49.6,28c-13.3,14.2-14.8,35-15.6,39.7c-1.9,11.5,5.3,40.3,5.7,47c0.2,3.2-2.3,19.2-2.3,19.2l19.1,1.3
	c0,0-2,72.4-2.4,76.2c-0.4,3,3.9,11,5.6,13.9l-106.6,50.3c0,0-34.6-21.3-57.3-30.7c-5.1-11.2-14.7-18.5-26.6-21.2
	c-3.2,45.8-75.3,177.2-25.6,211.5h9.9c10.1-10.4,4.7-25.8,33.9-18.7c6.7,1.6,18.1,11.9,24.4,5.6c6.8-6.9,3.5-14.3,7.5-22.6
	c10.3-21.4,24.5-40.6,35.6-61.5c9-16.9,6.9-35.8,5.4-54.2l97.2-47c-5.5,20-17.1,63.5-18.6,80.1c-1.9,21.8,0.6,39.5,42.6,48.8
	s60.1-29.4,60.1-29.4l29-70.3l34.6,19.8c0,0,9.3-4.7,12.8-9.9c4.4-6.7,3.7-20.2,3.7-20.2l-41.1-17.2l45-103.2c0,0,3.3-7.1,2.3-10.5
	c-1.4-4.8-3.7-3.7-3.7-3.7l-75.4,8.4c0,0,0-28.7,0.7-43c0.7-14.3,9.9-24.2,9.9-24.2s-5.2,6.5,7.8-5.8c13-12.3,55-7.1,55-7.1
	l37.9-3.8l-0.4-5.8l-2.5-0.1l-0.1-18.9l1.2-0.1l-0.2-3.7l4.1,1.2l0.6-6.5l5.9,0.1l0.1-1.7l29.8-0.1l4.6,0.9l-0.3-16.3L489.4,165.6z"
	/>
<path class="st4" d="M139.9,429.7"/>
<path class="st4" d="M478.3,142.6c-0.2-0.2-0.2-0.4,0-0.6c0.2-0.2,0.4-0.2,0.6,0s0.2,0.4,0,0.6C478.7,142.8,478.5,142.8,478.3,142.6
	z"/>
<polyline class="st4" points="379.6,351.8 380.1,352.1 380.2,353.4 380.9,353.7 380.7,354.3 "/>
<line class="st4" x1="377.2" y1="375.1" x2="371.4" y2="374.7"/>
<path class="st4" d="M355.5,370.3"/>
<path class="st4" d="M355.3,374.9"/>
<path class="st4" d="M355.2,375.8"/>
<path class="st4" d="M355,380.4"/>
<path class="st4" d="M354.9,381.4"/>
<polygon class="st5" points="298,298.9 295,385.7 311.8,386.2 315.1,299.5 316.5,299.5 313.1,387.7 293.5,387.3 296.4,298.9 "/>
<polygon class="st6" points="388.6,322.7 386.5,321.9 389.5,314.7 388.9,303.6 392,303.5 395.5,305.1 "/>
<polygon class="st7" points="468,143 468.1,145.9 466.7,145.7 "/>
<path class="st7" d="M465.8,170.7l-10.8-0.2v1.5l-0.5-0.1l-0.1-1.3l-4.3,0.1l0.2,1.6c0,0,0.1,0.5,0.6,1s1,0.6,1,0.6l13,0.3
	c0,0,0.2,0,0.5-0.4c0.4-0.4,0.5-1,0.5-1L465.8,170.7z"/>
<path class="st7" d="M486.6,170.8l0.1,1.9c0,0,0.1,0.4-0.4,0.8c-0.5,0.4-1.3,0.6-1.3,0.6l-14.4-0.1l-0.3-3.3l11-0.1l0.1,1.5l0.8-0.1
	l-0.1-1.3L486.6,170.8z"/>
<path class="st7" d="M393.7,189.5l0.2-9.4c0,0,0.1-0.9-0.8-1.6c-0.9-0.7-1.6-0.9-1.6-0.9l-9.2-0.1c0,0-3.7,0.6-3.5,3.8
	s2.8,3.2,2.8,3.2l3.3,0.1v3.8h-6.5l-0.1,0.9L393.7,189.5z"/>
<path class="st7" d="M312,235.8c-0.9-0.9-0.9-2.3,0-3.2s2.3-0.9,3.2,0c0.9,0.9,0.9,2.3,0,3.2C314.3,236.7,312.9,236.7,312,235.8z"/>
<path class="st8" d="M506.4,214.1"/>
<polygon id="test2" class="st9" points="528.8,237.9 512.3,239 511.9,237.6 529,236.6 "/>
<polygon class="st5" points="506.5,213.4 506.5,213.4 510.2,213.9 510.2,213.3 "/>
<path class="st5" d="M489.4,252.9l1.2-5.6c0,0,0.9-2.4,2.1-3.6s4-1.5,4-1.5l32.5-2.6l0.7-5.6l-17.1,1.3c0,0-1.4-0.1-2-0.9
	c-0.6-0.8-0.7-1.6-0.7-1.6l0.1-18.9l-3.7-0.5l0,0l-42.6,0.6l-0.3-5.1l-5.2-0.2l-0.1-18.8l1.3-0.1l-0.3-3.8l3.6-0.1l0.2-5l7.2,0.1
	l-0.2-1.7l29.5-0.1l1.3,0.9l5.4-0.1l0.2,33.4l3.7-0.1l0,0.6l0.1,0v-25.1l0.9-65l-2.7-20.9l-0.6,0.7c0.1,1.7-2.3,3.5-3.4,4.2l2,21.7
	l-0.3,34.5h-1.4l0.1,6.2l1.6-0.1c0.6,1,0.6,2.4-0.3,3.1c-0.9,0.7-1.9,0.8-1.9,0.8l-15.1-0.1c0,0-1.4-0.3-1.5-2
	c0-1.7,1.6-1.8,1.6-1.8l14-0.4v-2.6l-14,0.5v-1.4v-20.8l0.8,0.1l13.5,0.8l0.1-2.3l-5.4-0.1l-0.1-4.1l-0.8-1.3l0.1-5.9l0.9-0.8v-1.4
	l-7.2,0.5l0.1,1.4h4.7l0.2,5.9l-11.7,0.2l-0.2-1.9h-1.2l-0.2-1.2l-7.5,0.2c0,0,3,4.1,1.5,4.1c-1.8,0-7.9,0-9.1,0.8
	c-1.2,0.8-2.4,3.2-2.9,4c-0.5,0.8-0.8,0.3-0.8,0.3l-9.3,0.2c0,0-2.4,0.3-3.7,1.2c-1.3,0.9-2.8,3.9-2.8,3.9l0.3,20.3
	c0,0,0.3,1.7-1.5,2.6c-1.8,0.9-2.9,0.4-2.9,0.4s-5.3-2.8-6.7-3.1c-1.4-0.3-1.8,0.1-2.6,0.9c-0.8,0.9-1,2.5-1,2.5h0.9l4.6,0.1
	l-0.1,1.4l-58.9,0.6c0,0-1.9-0.3-2.6-1.1s-1.2-25.6-1.2-25.6l-2.5-0.8l-42.8,40.6l-3.3-3.1l-4.1,4l1.4,1.6l1.8-0.9l3.4,1.7l3.7-4
	l25.6-25l0.6-0.1l14.2-13.6l0.1,10.7l-5.6-0.1l-0.1,2.6h1.5c0-0.4-0.1-0.6,0.3-1c0.2-0.3,2.6-0.1,2.6-0.1s1.2,0.2,1.6,0.7
	c0.6,0.6,0.3,2.1,0.3,2.1s1.1,16.2-0.5,17.2c-1.7,1.1-1.2,0.7-2.7,0.7s-7.4-0.4-9.1,0.6c-1.7,1-22.8,22-22.8,22s-1.9,1.4-4.3,2.2
	c-0.7,0.2-25.3,24.4-25.3,24.4s-2,2.6,0.4,5c2.4,2.4,4.4,0.9,4.4,0.9l3.8-3.6l-3.2-3c-1.1-1.1,0.2-2.5,0.2-2.5s4.3-4.3,4.8-4.7
	c0.6-0.4,1.2-0.1,1.2-0.1l1.4,1.4l2-1.8l1.1-1.1l-1.2-1.3c0,0-0.3-0.6,0.3-1.3s1.3-0.4,1.3-0.4l0.8,0.5l1.2-1.1c0,0,0.1-0.2-0.5-0.7
	c-0.6-0.4,0.1-1.2,0.1-1.2s7.3-7.1,7.7-7.4c0.5-0.3,1.3,0.2,1.3,0.2l3.8,4c0,0,0.6,0.6,0.8,1c0.2,0.4-0.4,0.6-0.4,0.6l2.5,1.1V213
	l-3.6-3.8c0,0-0.2-0.1-0.4-0.8c-0.2-0.7,0.2-0.9,0.2-0.9s11.7-11.4,12.5-12.1c0.8-0.7,1.7,0.1,1.7,0.1l1.1-1c0,0-0.2-0.2-0.4-0.6
	c-0.2-0.4,0.4-0.9,0.4-0.9l6.3-6.3c0,0,1.4-1.2,2.3-1.7c0.9-0.5,2.6-0.1,2.6-0.1h6c0,0,0.8-0.4,2,0.8c1.2,1.3,0.4,2.4,0.4,2.4
	l-0.1,4.9l3-3.9v-0.9l6.6-0.1l0.3-3.3l-3.6-0.3c0,0-2.6,0-2.8-3.2s3.5-3.8,3.5-3.8l9.2,0.1c0,0,0.7,0.2,1.6,0.9
	c0.9,0.7,0.8,1.6,0.8,1.6l-0.2,9.4l6-1.9l1.8-3.5l2.2-2.6l-4.7-0.1c0,0-2-0.3-1.7-1.9c0.3-1.6,1.9-2.1,1.9-2.1l20.8,0.5
	c0,0,1.1,0,1.6,0.7c0.3,0.5,0.1,16.3,0.5,17.6c0.4,1.3,2.8,3.7,2.6,4.8c-0.2,1.1-0.1,11.9-0.1,11.9s0,1.9-0.8,2.3
	c-0.8,0.5-1.7,0.6-1.7,0.6s-23.1-0.5-35.8,0c-12.9,0.6-18.7,4-28.4,13.5C344.9,242,345.5,264,345.5,264l-0.7,13.9v1l-0.9,25l8.5-0.7
	l-0.4,20.5l3.9,0.1l-3,67c0,0-0.6,4.3-1.7,6.8c-1.4,3.3-5.5,7.5-5.5,7.5s-18.2,21-44.2,14.9c-40.7-9.6-40.5-45.7-40.5-45.7l5-139.4
	c0,0-16-0.7-15.9-0.8l-2,45.8l6.3,0.5l0.2,17.9l-12.7-0.5l-2.5-1.4c0,0,1.3-8.4,1.4-11.3c0.1-2.5-1.6-12.4-2.5-19.4
	c-1.4-5.6-4.3-21-2.9-30c0.1-0.8,3.5-16.8,3.5-16.8c4.8-13.8,12.1-22.2,16.1-26.4c4-4.2,14.2-10,14.2-10l1.9-1l30.2-12.5l2.3-0.8
	l24.1-7.9l2.8-0.9l29.6-9l2.3-0.6l8.7-2.9l8.2-2.7l29.4-10.1l2.4-0.9l33.7-11.3l2.5-0.8l13.8-4.7l3.1-0.7l32.3-10.3l0.3-0.8
	c0,0,2.2-1.3,4.8-0.5c2.7,0.8,2.4,4,2.4,4s0.2-0.1,0.5-0.3l0-0.1l3.4-4.1c0-0.1,0-0.1,0-0.2c-0.5-2.8-6.9-7.5-6.9-7.5s0,3-1.2,4.3
	c-1.1,1.1-3.6,1.5-3.6,1.5S336.1,155,331.7,155.8c-10,1.8-65.1,24.6-65.1,24.6s-10.9,6.3-15.6,11.4c-1.3,1.4-8.4,10.5-11.2,15.5
	c-2.7,4.9-3.6,7.7-3.6,8.4c0,0.7-3.5,12.1-3.8,13.3s-1.2,6.2-1.4,10.2c-0.4,8.4-0.6,12.7,2.5,21.3c4.8,13.3,8.2,27.1-2.7,44
	c-10.9,16.9-35,13.5-45.5,15.9c-7.6,1.7-21.4,6.9-28.7,8.6c-7.3,1.7-20.4,8-22.8,9.4c-2.4,1.4-5.4,2.8-5.4,2.8l-25.6-17.4
	c0,0-2.9-1.6-5.3-1.1s-3.2,2.1-4.5,3.8c-1.2,1.7-5.2,3.5-7.4,5.1c-2.2,1.6-3.1,4.2-3.1,4.2l-4.1,22L72,411.3l-22.2,63.6l-19.5,68.5
	l15,63.1l3.4,0.4l-10.1-39l-4.9-25l4.8-19l9.3-32.4l13.3-42l10.5-27.6l3.5-12.3l5.6-51.6l3.8-20.2l2.4-5c0.8-1.3,4.6-2.6,6.3-3.8
	c1.7-1.2,3.5-3.4,3.5-3.4s0.5-0.9,2.7-1.5c2.3-0.6,25.3,17.7,28,18.5c2.7,0.7,2.1,3.4,4.8,2c1.9-0.9,2.7-0.9,6.1-4.4
	c5.6-5.7,44.3-17.3,54.5-18.5c9.6-1.1,19.4-1,27-4.8c0.5-0.1,2.1-1,2.8-1.2c1-0.3,6.9-4.2,8.1-3.9s1.8,0.9,1.8,0.9l2.3-1.7l0.7-8.1
	c0,0-0.3-0.2,0.2-1.1l0.1-0.3l1-0.7l1.1,0.1l20.3,0.2l2.2,1.4l-1.9,71.5c0,0-0.5,35.9,35.8,47.2c13.1,4,19.2,4.1,30.6,0.6
	c13.9-4.2,25.5-17.4,34.5-18.3c8.8-0.9,15.3,7.1,15.3,7.1c0.7,0.3,0.6,1.6,0.6,1.6l-39.3,97l-6.6,13.6l6.5-1.3l2-4.2l6.8-15.3
	l1.7-3.3l35.1-87c0,0,0.2-0.8,0.7-0.6c0.5,0.3,0.1,1,0.1,1l-2.3,5.6l2.5-1.3c0,0,1.7-5.1,3.4-5.7c1.4-0.5,2.4,0.3,2.4,0.3l35,14.2
	l1.8-2.8l-33.7-13.6c0,0-1.8-0.3-3.4-2.2c-1.6-1.9,1.7-8.1,1.7-8.1l-1.7-1.1l-2.7,5.9c0,0,0.1,0.6-0.5,0.4c-0.6-0.3-0.6-0.2-0.6-0.5
	c18.6-43.1,30.4-68.7,32.2-73c1.8-4.3,14.8-34.4,16.2-35.3c1.4-0.9,5,1.8,5,1.8s39,19.5,40.2,20c1.1,0.5,2.9,2.2,3.8,4.5
	c0.9,2.4-0.6,4.5-0.6,4.5L469.7,360l3.1,2l14.4-39.6l10.6,2.8l1.5-4.3l-14.8-5l-43.4-21.1c0,0-3.8-2.5-4.4-4.1
	c-0.6-1.6-1.5-3.1-0.9-5.3c0.6-2.3,11.4-29.6,11.4-29.6s3.2-5.1,6.3-7c3.1-1.9,7.1-2.2,8.9-2.6c1.9-0.4,18.9-2.3,18.9-2.3
	s1.5,0.2,2.8,1.7s1.3,3.3,1.3,3.3l-1,5.2L489.4,252.9z"/>
<path class="st5" d="M504.5,107.8c1.1-0.7,3.5-2.4,3.4-4.2L504.5,107.8L504.5,107.8z"/>
<path class="st5" d="M128.1,500.5L128.1,500.5c1.4,0.5,2.8-0.2,3.3-1.5l1.8-5c0.5-1.3-0.2-2.7-1.5-3.2l-0.3-0.1
	c-1.3-0.5-2.7,0.2-3.2,1.5l-1.4,4c0,0-0.7,1.6-2.4,0.9l-70.8-25.5l-0.7,2.1l75.5,26.9L128.1,500.5z"/>
<path class="st10" d="M128.1,500.5L128.1,500.5c1.4,0.5,2.8-0.2,3.3-1.5l1.8-5c0.5-1.3-0.2-2.7-1.5-3.2l-0.3-0.1
	c-1.3-0.5-2.7,0.2-3.2,1.5l-1.4,4c0,0-0.7,1.6-2.4,0.9l-70.8-25.5l-0.7,2.1l75.5,26.9L128.1,500.5z"/>
<path class="st5" d="M104.4,593.5l-2-1.4l26-71c0.8-2.3-1-3.3-2.7-3.9c-0.3-0.5,0.2-1,0.7-1.2c0.7-0.3,1-0.6,1.7-0.7
	c1.6,0.6,2.4-0.3,2.9-1.5l3.1-8.4l-2.8-1l-1.9,5.3c-0.2,0.3-0.6,0.3-0.9,0.5l2.2-6l-35.3-12.9c-0.1-0.2-0.1-0.5-0.1-0.7l35.7,13
	l2.9-7.8l0.7,0.1l-2.9,7.9l2.8,1l2.7-7.3l7.1,2.6l-2.3,6.2l-4.9-1.8L104.4,593.5z"/>
<path class="st3" d="M355,320.7l17.3,1.3l-2.9,71.5l7.1,0.4l12.7-30l-17.3-0.6l0.1-1.5l9.8,0.4l0.9-1.9l1.1,0.1l-0.9,1.7l6.8,0.4
	l14-30.9l1.1-2.5l13.6-34c0,0,2.8-0.6,3.9,0.4c1.2,1.1,0.4,4.1,0.4,4.1l-42.2,96.5l-11.3-0.8v6c0,0,9.7,0.6,10.2,0.3
	c0.5-0.3,0.7-0.5,1.1-0.9L424,300.1c0,0,0.6-3.1-0.7-4.5c-1.3-1.4-2.7-1.5-2.7-1.5s-60.8,6-61.5,6.1c-1.5,0.3-3.4,0.7-3.7,2.6
	C355.3,303.5,355,320.7,355,320.7z"/>
<polygon class="st7" points="374.9,412.5 380.8,400.5 377.6,400.8 372.7,410.8 "/>
<path class="st3" d="M505.8,229.3c0,0-0.2-2.9-1.4-3.7c-1.2-0.8-2.9-1.8-4-1.5c-1.1,0.4-8.4,3.3-8.4,3.3s-2,1.5-2.8,2.8
	c-0.8,1.4-1.6,4.5-0.6,6.1c0.9,1.6,3.2,3.9,6.1,3.9s8.7,0.7,10.2-1.8C506.4,235.8,505.8,229.3,505.8,229.3z"/>
<path class="st9" d="M427.3,300.2c0.7-1.6-0.1-2.3-1.1,0.1c-1.8,4.3-25.3,59.3-43.9,102.4l1,0.3C383.3,403,426.8,301.2,427.3,300.2z
	"/>
<path class="st9" d="M462.7,243.9c1.3-0.2,19-2.5,19-2.5s0.5-0.1,0.5-0.6s-0.9-0.4-0.9-0.4s-16.2,1.2-18,1.5
	c-4.5,0.8-8.3,0.3-15.8,6.8c-3.1,2.7-10.6,20.6-11.2,22.2s-1.5,5.7-1.4,7c0.1,0.9-3.8,10.9-3.8,10.9l0.7,0.2
	c0,0,11.1-32.7,16.9-38.8C453.8,245.2,458.4,244.5,462.7,243.9z"/>
<path class="st9" d="M333,521.1c-0.7,1.6,0.1,2.3,1.1-0.1c1.8-4.3,27.3-66.7,45.8-109.8c0.1-0.5,0.4-0.8-0.2-1.1
	c-0.6-0.2-0.7,0.7-0.7,0.7S333.4,520.2,333,521.1z"/>
<path class="st7" d="M480,225.4c0,0-7-7-14.2-7.7c-7.2-0.6-18.4,0-18.4,0l0.1,0.6c0,0,15-0.3,19,0.1c5.1,0.5,13,7.4,13,7.4
	L480,225.4z"/>
<path class="st3" d="M506.1,213.5c-0.2,1.6,0.4,3.7-0.8,5.1c-2.4,2.8-18,5.6-18,5.6s-2.1,0.9-3,0.6s-3.5-1.2-4.2-2s-6.1-4.1-8.6-5.4
	c-3.2-1.6-10.1-2-10.1-2l-33.5,0.9c0,0-0.4,0-0.6-0.1c-0.3-0.1-0.6-0.5-0.6-0.5s0.6-13.1-0.2-14.7c-0.8-1.6-1.4-2.5-1.8-3.5
	c-0.3-1-0.6-17.1-0.6-17.1s0-1.5,0.7-2.2s1.5-0.5,1.5-0.5l23.5-0.1c0,0,0.3-0.2,1,0.3c0.7,0.6,0.8,1.5,0.8,1.5l-1.4,0.1l-0.1,5.7
	h1.7l-0.1,27.3l0.8,0.6v1.3l51.6-0.8L506.1,213.5z"/>
<polygon class="st5" points="294,285.1 294,284.4 288.9,284 289,279 294,279.3 294.1,267.8 287.8,267.6 287.7,271.1 279,270.8 
	278.9,278.1 282.5,278.2 282.8,279.2 285.7,279.4 285.8,282.4 286.8,282.4 286.8,293.7 279.5,293.5 279.6,296.7 296.1,298.9 
	296.2,291.1 292,290.6 292,286.5 290.6,286.4 290.6,284.8 "/>
<polygon class="st11" points="316.3,323.3 343.6,324.4 343.4,326.5 346.4,326.7 346.4,331.9 321,330.9 320.9,336.1 317.4,336 
	317.4,334 315.8,333.8 "/>
<polygon class="st11" points="282.7,408.4 300.9,408.7 300.9,407.8 303,408.7 304.3,406.7 303.2,404.8 300.9,405.6 300.6,404.9 
	292.5,405 292.6,388.8 271.8,388.5 271.8,396 287.9,396.3 287.7,400.7 278.7,400.7 278.7,403.2 282.8,403.3 "/>
<path class="st11" d="M314.2,389.3v13.9l-0.8,0.1l-0.1,9.8c0,0,10.6,0.9,16.6-6.8c6-7.7,4.7-17.4,4.7-17.4l-18.7-0.5l0.1,0.8
	L314.2,389.3z"/>
<polygon class="st11" points="313.3,414.1 313.3,415.6 310.2,415.6 310.1,414.3 "/>
<polygon class="st11" points="314.8,362.2 315,359 315.6,358.6 318.1,358.6 318.1,357.3 320.2,357.4 320.1,358.3 320.7,358.7 
	320.7,362.9 315.4,362.8 "/>
<polygon class="st11" points="345.5,348.2 345.5,350.1 340,350 340.1,348.1 "/>
<polygon class="st11" points="315.2,350.7 345.5,351.2 345.5,354.1 344.5,354.1 344.5,355.4 345.6,355.5 345.6,358 315,357.5 "/>
<polygon class="st11" points="291.8,343.7 291.8,347.6 288.4,347.6 288.5,343.7 "/>
<polygon id="DEM" class="st11" points="265.7,334.9 294.2,335.5 294.1,342.6 265.5,342 "/>
<polygon class="st11" points="342.1,201.8 339.2,204.7 337.6,203 336.9,203.7 327.6,194.1 328.1,193.3 325.6,190.6 325.8,190.1 
	325.4,189.7 327.5,187.7 327.9,188.1 328.2,187.7 331.1,190.5 331.6,190 340.9,199.5 340.5,200.1 "/>
<polygon class="st11" points="348,195.3 347,194.3 344.8,196.6 345.7,197.5 "/>
<polygon id="CONFUCIO" class="st11" points="428.5,210.6 431.6,210.6 431.6,211.4 449.2,211.3 449.2,212.3 451,212.3 451,208.9 
	449.1,208.8 449.1,205.6 446.8,205.6 446.8,207 440.2,207 439,206 435,206 432.9,208 431.5,208 431.5,207.1 428.5,207.1 "/>
<polygon id="DLC" class="st11" points="450.1,192 450,189.1 450.8,189.1 450.8,186 447.9,185.9 447.9,184 434.3,184 434.2,184.9 
	433.1,184.8 433,184 426.2,184 426.2,187.2 426.8,187.2 426.9,188.6 426.3,188.6 426.3,191.9 432.4,192 432.4,190 434.1,190 
	434.1,190.7 436.5,190.7 436.5,190 447.9,190.1 447.9,191.1 447.4,191.1 447.4,191.9 "/>
<polygon class="st11" points="460.7,209.1 460.7,214.3 463.7,214.2 463.7,209.1 "/>
<polygon class="st11" points="467.2,177.9 467.2,181.4 463.8,181.4 463.8,187.7 459.3,187.7 459.3,190.4 457,190.4 457,187.6 
	455.8,187.6 455.8,185.7 454.9,185.7 454.9,180.7 454,180.8 454,177.9 "/>
<polygon class="st11" points="271.7,293.3 286.9,293.8 286.9,282.3 285.9,282.3 285.8,279.2 282.9,279.2 282.9,278.1 271.7,277.7 
	"/>
<polygon class="st12" points="325.9,253.4 324.8,253.2 324.7,255 325.9,255.1 "/>
<polygon class="st11" points="386.5,411.9 392.4,413.9 392.3,414.3 395.9,415.9 396.3,415.3 400.8,417 403.7,427.3 390.3,442.6 
	382.8,435.9 390.5,427.2 389.1,423.3 389.8,422.9 388.6,420.2 384.1,418.2 "/>
<polygon class="st11" points="265,357.7 293.5,358.6 293.9,348.7 265.3,348 "/>
<polygon class="st5" points="314.5,325.6 296.8,325.2 296.8,326.6 314.4,327 "/>
<polygon class="st5" points="313.9,338.9 296.2,338.5 296.2,339.9 313.8,340.3 "/>
<polygon class="st5" points="313.5,352.2 295.9,351.8 295.8,353.3 313.5,353.7 "/>
<polygon class="st5" points="313,365.6 295.3,365.2 295.2,366.6 312.9,367.1 "/>
<path id="BIBLIO" class="st11" d="M287.7,271.1l1-26.9l0.9-4.6l-2.4-0.2l0.1-1.8l-5.6-0.2l-0.3,2l-1.5,0.1l-0.5,1.9l-1.4,5.3h-0.8
	l-0.3,7.5l2.3,0.3v1.5h-3.7l-0.2-1.6l-2.3-0.3v-1.5h2.2l0.3-3.4l-3.1-0.2l-0.5,13.6l7.1,0.2l-0.2,8.3H287.7z M285.9,270.6l-5.3-0.3
	l0.1-2.7l5.2,0.2L285.9,270.6L285.9,270.6z M279.2,257.9l-1.3-0.1l0.5,1.4h0.8V257.9z"/>
<polygon class="st11" points="446.4,123.6 447,125.2 448.6,124.6 449.8,126.5 447.8,127.3 448,128 446.4,128.5 446.8,129.7 
	444.7,130.4 443,124.9 "/>
<polygon class="st13" points="248,280.2 249.9,234 266.1,234.7 263.8,295.8 254.4,295.5 254.3,280.5 "/>
<path class="st14" d="M422.9,218.7"/>
<path class="st5" d="M309.9,372.7l-0.2,5.8c-0.1,2.5-2.9,5.8-6.3,5.7c-3.4-0.1-6.1-3.7-6-6.2l0.2-5.8h-1.1l-0.2,5.8
	c-0.1,3.9,3.2,7.2,7.1,7.3c3.9,0.1,7.2-2.9,7.3-6.8c0-0.1,0.2-5.8,0.2-5.8H309.9z"/>
<polygon class="st13" points="359.7,324.3 370.4,324.6 367.6,392.4 358.1,391.3 "/>
<path class="st13" d="M355.1,320.6l0.4-17c-0.2-2.6,1.8-2.9,2.7-3.2l22.4-2.3l-2.7,48.7l-6.5-0.6l1-24.2L355.1,320.6z"/>
<path class="st3" d="M349.4,268.5l0.3,30.8l74.8-8c0,0,0.9,0.1,1.4-0.4c0.5-0.6,12.9-30.8,12.9-30.8s4.1-10.8,9.6-15
	c3.7-2.8,8.5-4.5,10.8-4.8c2.4-0.4,20.5-1.9,20.5-1.9s0.7,0,1.5-1s1-3.6-0.8-7.2c-2-4-8.6-8-11.8-8.6c-2.6-0.5-2.2-0.1-2.2-0.1v1.7
	l-0.1,13.4c0,0-13.9,0.1-20.2,5.3c-2.2,1.8-2.4,2-4.9,5.5s-8.3,18.7-8.3,18.7l-6.7-0.4l-1.1-44.3c0,0,0.2-0.4-0.4-1.7
	c-0.5-1.3-2.5-0.9-2.5-0.9l-1,0.1l-34.9-0.3l-1.2,0.1c0,0-16.8,1.8-25.6,13.1c-0.3,0.4-0.9,1.2-0.9,1.2c-4.9,6.7-7.9,13.7-9.1,20.8
	l-0.2,1.4C348.9,259.5,349.4,264.6,349.4,268.5z"/>
<path class="st11" d="M323.9,248.4l4.5,0.1l0.1-4.5l-9.4-0.4l-0.3,7.4c1.8,0,3.3,0,5,0L323.9,248.4z"/>
<path class="st11" d="M333,258.6l-1.2-0.1l-0.1,1.3l-2.2-0.1l0.1-5.5l-3.2-0.2l-0.1,3l-2.6-0.2l0.1-5.8c-1.7,0-3.2,0-5,0l-1,25
	l5.5,0.2l0.1-2.6h2.3l-0.1,5.6h5.8l0.1-7.4h2.5l-0.2,6l5.6,0.3l0.2-10.5h1.6l0.2-14.6c-2.7,0-5.8,0-8.2,0L333,258.6z"/>
<polygon class="st5" points="346.9,217.2 344.1,216.9 330.6,230 330.6,241.3 333,241.3 333,239.3 331.6,239.2 331.6,230.9 
	344.8,218.1 347,218.5 348.8,216.8 348,216 "/>
<path class="st11" d="M356.7,208.4l-1.4,1.4l-0.6-0.6l-2.9,2.8l-0.7-0.8l2.1-2.1l-1.1-1.1l-0.5,0.5l-1.5-1.5
	c0.9-0.9,1.7-1.7,2.6-2.6c-1.1-1.1-2.2-2.1-3.3-3c-2.4,2.4-4.8,4.8-7.2,7.2c1.2,1.2,2.4,2.5,3.6,3.7l1.3-1.3l1.4,1.4l-2.4,2.4
	l1.2,1.1l0.4-0.3l0.4,0.4L348,216l0.7,0.7l0,0l0.5,0.4l-8.8,8.7c1.8,1.1,3.4,2.3,4.8,3.7l12.4-12.4l-0.2-0.3l0.8-0.9l0.3,0.4
	c0.6-0.6,1.1-1.2,1.7-1.7c0.5-0.6,1.1-1.1,1.6-1.7C360.1,211.6,358.3,210,356.7,208.4z"/>
<polygon class="st11" points="331.8,268.8 326.1,268.6 326.1,266.3 324.7,266.3 324.6,268.6 323.6,268.6 323.8,259.6 326.6,259.7 
	326.6,261.4 329.8,261.5 329.8,259.9 331.8,259.9 "/>
<path class="st11" d="M374.7,195.7l-1.3-0.3l0.1-6.5l-11.2-0.2l-6.8,6.8l0.3,0.3l-1,1l-0.4-0.4c-1.3,1.3-2.5,2.5-3.8,3.8
	c-0.4,0.4-0.8,0.8-1.2,1.2c1.1,0.9,2.2,2,3.3,3c0.4-0.4,0.8-0.8,1.2-1.2c1.4-1.4,2.7-2.7,4.1-4.1c0.7,0.7,1.3,1.3,2,2
	c0,0-1,1.2-1.1,2c-0.1,0.8,0.9,2.2,0.9,2.2l-3.1,3.1c1.7,1.6,3.4,3.2,5.3,4.4c0.7-0.7,1.4-1.5,2.1-2.2c2.6,0,5.3,0.1,7.9,0.1
	l0.1-3.2l-3.9-4l-0.6,0.5l-0.6-0.6l-0.4,0.3l-1.1-1.1l-1.8,1.8c-0.2-0.1-0.3-0.3-0.5-0.4c2-2,4.1-4.1,6.1-6.1c1.3,1.3,2.7,2.6,4,3.9
	l0.1-4.4l1.3-0.1c0,0,0.5-0.2,0.7-0.8C375.5,195.9,374.7,195.7,374.7,195.7z"/>
<polygon class="st11" points="368.6,196.4 362.6,202.5 358.6,198.5 364.3,192.8 368.7,193.3 "/>
<polygon class="st11" points="329.8,261.5 326.6,261.4 326.6,259.7 323.8,259.6 323.6,268.6 324.6,268.6 324.7,266.3 326.1,266.3 
	326.1,268.6 331.8,268.8 331.8,259.9 329.8,259.9 "/>
<polygon class="st11" points="358.6,198.5 362.6,202.5 368.6,196.4 368.7,193.3 364.3,192.8 "/>
<path class="st11" d="M464,155.5v7.5h-7.3v-7.5H464z M481.2,169.1v-1.5h2.8v-2.4h1.8v-11.9h-1.7v-2.4h-2.6v-1.4h-8.9v-2.8l9.2,0.1
	v-1h1.5v-2.2h-1.7v-0.8l-11.3-0.2v7l-15.8,0.1l0.1,1.2h-3.8v13.8h1.4v2.8h3v1.8h11.1v-1.2h4.3v1.2L481.2,169.1z M481.3,153.8
	l0.1,10.9h-11v-3.8h3.8v1h4v-5.1h-4.1v0.9h-3.8v-3.9L481.3,153.8z M465.9,153.9v10.7l-10.9-0.1v-10.7h10.9V153.9z"/>
<path class="st11" d="M373.2,176.8l-12.5-0.1l-0.1-13l12.5,0.1L373.2,176.8z M366.2,168.5l-0.1,2.6l2.6,0.1l0.1-2.6L366.2,168.5z"/>
<rect x="346.8" y="176.6" transform="matrix(0.7071 -0.7071 0.7071 0.7071 -27.219 301.2234)" class="st11" width="6.3" height="13.7"/>
<path id="_x39_" class="st11" d="M401.6,184.2l0.1,5.5h-3.6l-0.1,1.5l1.1,0.1l-0.1,2.4h-1v1.8l1-0.1v2.7h-1v1.7l1.1,0.1l-0.1,2.5
	h-0.8l-0.1,1.5l1,0.1l-0.1,2.3h-0.9v1.6l3.1,0.2l0.1,3.6l-6.8-0.1l0.2,2.7h-1l-0.2-2.6l-6.1-0.3l0.1-7.8c0,0,0.5-1-0.6-1.7
	s-1.4-0.5-1.4-0.5l-11-0.3l0.1-0.9h6.1l0.1-1l6.7-0.6l-0.3-4.5l-5.7,0.7l0.2,3.6l-1.6,0.1l-0.1,1h-1.8l0.5-10.3h8.2l0.5-6.4
	c0,0,3.8-0.1,5.5,3c1.6,3.1,1.2,5.4,1.2,5.4l1.2,0.1l0.2-3.4h4.3c0,0,0.4-2.1,1.1-2.6C401,184.5,401.6,184.2,401.6,184.2z
	 M393.4,207.6l-3.5-0.1l0.2-6.7l3.4-0.1L393.4,207.6z"/>
<polygon class="st11" points="412.5,307.5 411.1,296.1 388.5,298.2 388.8,302.6 395.9,302 396.1,304 399.7,304 399.5,302.5 
	398.5,302.4 398.3,301.3 407.1,300.1 407.5,299.4 408.1,300 407.9,300.5 408.4,305.6 403.2,318 385.8,357.5 389.9,359.3 "/>
<polygon class="st11" points="397.3,312.5 398.6,309.8 400,306.9 399.6,305 396.8,305.3 395.6,304.9 388.4,322.9 391.6,324.3 
	394.7,317 396.2,315.6 "/>
<polygon class="st11" points="386.4,336.1 382.6,334.2 387,324.6 390.8,326.1 "/>
<polygon class="st11" points="378,386.7 374.5,387.7 371.7,386.7 372.2,378.9 372.8,379 372.6,377.9 371.3,377.5 371.4,375.6 
	372.6,375.5 372.9,373.9 372.4,373.6 372.7,367 373.9,366.4 374.1,364.5 375.9,365.9 377.1,365.5 379.6,366.9 377.2,371.8 
	377.2,377 379.9,378.6 379.2,379.9 378.2,379.3 "/>
<path class="st11" d="M360.4,428.7l0.3,0.2l0.4-1.2l-12.7-5.3l6.6-15.7l16.6,6.5l-14.1,34.7l-1-0.3l-1,2.2l-1.9-0.5l3.6-9.3
	l-7.7-3.4l0.8-1.7l3.3,1.5l-0.4,0.7l2.6,1.1l0.7-1.8l-4.4-2.1l2.3-5.5l4.7,1.9v0.5l0.6,0.3l0.5-1.6l-0.3-0.2c-0.4,0.4-1,0.3-1.4-0.1
	s-0.4-1.1,0-1.5s1.1-0.4,1.5,0C360.2,428.3,360.3,428.5,360.4,428.7L360.4,428.7z"/>
<path class="st13" d="M291.9,420.2c5.3,1.8,11.8,3.8,19.2,3.9c2.6,0,11.8-1.4,17.5-3.9c6.8-3,15.1-8.9,15.1-8.9l1.4,25.8l-32.1,1.2
	l-7.1,17.8l-43.6-42l3.7-14.4c0,0,3.6,6.1,9.1,10.9C279,414.1,284.3,417.6,291.9,420.2z"/>
<path class="st11" d="M304.4,389l0.1,14H295l0.1-14.2L304.4,389z M301,393.4h-2.7v4.4l2.8,0.1L301,393.4z"/>
<polygon class="st5" points="287.9,265.7 287.8,267.8 302.8,254 301.8,253 "/>
<path class="st15" d="M299.9,377.3c0.2-0.6,0.6-1.1,1-1.6c1.6-1.5,4.1-1.5,5.6,0c0.5,0.5,0.8,1,0.9,1.7L299.9,377.3z"/>
<path class="st15" d="M307.2,380c-0.2,0.5-0.5,1-1,1.4c-1.6,1.5-4.1,1.5-5.6,0c-0.4-0.5-0.7-1-0.9-1.6l2.3,0.1c0,0,0.8,1,1.5,1
	s1.5-0.9,1.5-0.9H307.2z"/>
<polygon class="st13" points="331.9,299 344.3,299 344.8,280.8 332.7,280.5 "/>
<path class="st13" d="M425.2,224.8l1,40.8l6.7,0.5c1.6-3.8,6.1-17.8,12.6-23.8c5.6-5.1,20.2-5.3,20.8-5.8c0.4-0.3,0.4-15.1,0.4-15.1
	L425.2,224.8z"/>
<polygon class="st11" points="484,138.7 483.8,133.4 495,133.3 495.1,138.5 "/>
<polygon class="st11" points="475.1,135.8 475,133.3 482.6,133.4 482.7,135.8 "/>
<polygon class="st11" points="465.5,137.7 465.6,139.6 466.9,139.7 466.9,137.7 "/>
<polygon class="st11" points="462.2,137.7 462.2,141.3 463.5,141.3 463.5,142.7 458,142.8 458,141.3 456.9,141.3 456.9,137.7 "/>
<polygon class="st11" points="502.6,143.3 498.4,143.2 498.3,139.1 497.1,138.2 498,137.2 496.9,136.3 498,135.3 497,134.5 
	498.1,133.7 497.2,133 498,132 497.8,130.3 503.5,130 504.4,130.5 503.7,131.1 504.4,131.9 503.9,132.5 504.5,133.2 503.8,133.9 
	504.4,134.6 503.9,135 504.6,135.6 504.1,136.3 504.6,136.8 504,137.6 504.6,138 503.9,138.8 504.8,139.3 503.9,140.4 502.7,140.3 
	"/>
<path id="DQ" class="st11" d="M352.2,378.1l-0.3,7l-10.3-0.2l-0.2-0.4l-27.2-0.4v-2.3h1.9l0.1-2.7h-2l0.2-7l3.7,0.2l-0.1,5.2
	L352.2,378.1z M350.1,381.2v1.4l-6.6-0.1l0.1-1.5L350.1,381.2z"/>
<polygon class="st11" points="400.2,443.9 408.7,430.5 417.8,439.6 413.4,445.8 410.4,442.8 412,440.4 409.4,437.8 403.2,446.9 "/>
<rect x="130.7" y="482" transform="matrix(0.3418 -0.9398 0.9398 0.3418 -360.9057 456.2126)" class="st11" width="29.1" height="7.6"/>
<rect x="122.3" y="486.6" transform="matrix(0.3417 -0.9398 0.9398 0.3417 -379.1469 440.2128)" class="st5" width="4.7" height="8.2"/>
<polygon class="st11" points="379.7,348.4 379.4,353.7 381,354.4 381,354.8 381.4,355.4 379.2,360.9 373.6,360.6 373.8,356 
	373.3,355.8 373,360.7 372.1,360.7 372.5,352.4 374,352.5 374.2,348 "/>
<polygon class="st11" points="309.8,265.5 309.6,274.3 298.7,274 298.9,265.2 "/>
<polygon class="st15" points="414.1,206.4 414.4,181.3 409.2,181.2 408.6,206.3 "/>
<path class="st11" d="M295.3,309.3l-0.3,12.6h-3.4v2.1l1.4,0.1l0.2,1.8l1.6,0.1l-0.1,3.7l-28.8-0.6l0.2-6.9l19.4,0.3l1.2,1.5
	l3.6,0.1v-2h-2l-0.1-6.3l-2.1-0.1l-12.8-0.4l0.4-3h0.6l0.6-0.8l-1.4-0.1l-0.1-2.9l3.7-0.1l1.6-0.7l0.9,1.1L295.3,309.3z"/>
<path class="st11" d="M302.9,478.1l-2.1-1.1l12.5-30.2l2.1,0.9l2.7-6.5l3.2,1.2l-0.2,0.8l0.8,0.5c3.6-2,8.4-3.1,14-0.7
	c15,6.5,9,22.4,9,22.4l-12.1,28.9c0,0-7.4,15.8-22.1,9.3c-5.6-2.4-8.2-6.4-9.3-10.2l-4.1-1.7L302.9,478.1z"/>
<polygon class="st11" points="293,371.3 287.4,371.3 286.7,370.5 286.6,369.3 264.6,368.1 264.8,360.9 286.5,361.7 286.4,361 
	292.5,361 292.6,361.8 293.4,361.8 "/>
<polygon id="REITORIA" class="st11" points="316.9,302.5 343.5,303.5 343,317.7 334.1,317.4 334.2,315.9 316.6,315.3 "/>
<rect x="107.7" y="473.8" transform="matrix(0.3418 -0.9398 0.9398 0.3418 -383.7033 422.9082)" class="st11" width="4.7" height="23.2"/>
<path class="st15" d="M447.6,142.3c0,0,2.2-3.4,1.1-5.1c-1.1-1.6-3.7-1.5-4.8-1.1c0,0-30.5,11-30.4,11.1l-4.7,21.1
	c0,0,0,0.8,0.7,1.5c0.7,0.6,1.3,0.4,1.3,0.4l15.1-0.7c0,0,1.4,0.5,2.3-0.3c0.9-0.7,0.9-1.3,0.9-1.3L447.6,142.3z"/>
<polygon class="st11" points="272.3,315.2 272.4,308.2 266.6,308 266.3,314.9 "/>
<polygon class="st5" points="293.4,284.3 293.4,280.7 288.7,280.3 288.8,279.8 294,280.2 294,284.4 "/>
<polygon class="st11" points="314.8,364.1 345.6,364.6 345.6,371.7 314.6,371.2 "/>
<polygon class="st11" points="400.6,143.8 406.1,138.4 411.4,143.9 406,148.9 "/>
<path class="st15" d="M491.8,93.7c-9.7-3.3-26.4,3.1-43.2,8.8s-46.8,16.9-58.3,21.1c-11.5,4.3-41.9,15.8-49.7,17.9
	c-7.8,2-51.5,12.9-58,12.9c-6.6,0-20.4,5.4-26.7,9c-6.2,3.6-13.6,8.6-18.3,15.2c-4.7,6.7-11.6,10.4-18.6,51.9
	c-5.1,30.1-3.9,20.4-6.2,29.1c-2.1,8.1-9.3,27.5-18.7,32.1c-9.4,4.6-20.2,8.3-32.6,3.4c-12.5-4.9-18.2-8.5-20.3-7.2
	c-0.7,0.5-2.5,1.5-3.9,2.7c-2,1.8-2.4,4.1-4.2,5.4c-3.3,2.5-6,2.6-10.1,3.4c-4.2,0.8-6.7,1.1-10.9,0.5c-3.7-0.5-5.6-1.9-9.2-2.9
	c-5.6-1.6-14.4-3.5-14.4-3.5l5.9,8.5c0,0,2,2.8,2.5,4.4c0.5,1.6-0.2,3.4,0.8,4.7s6.4,5.3,6.4,5.3l0.7,2.1c2.8,2,6.3,6.4,7.5,7.5
	c1.3,1.4,4.3,3,5.6,4.3c1.2,1.3,6.3,6.7,7.7,7.8c1.4,1.2,3.1,1.7,4,1.5c1-0.2,3.7-2.5,4.6-3.2c0.9-0.7,8-3.8,8-3.8l1,1.4l5.4-2.3
	c-2.5-5.8-6.5-15.5-7.2-16.5c-0.7-1-2.5-11.2-3.6-17.8l2.6-3.3l51.7,19.7l0.7-1.7l-23.5-9l2.7-0.9l13.6,5.1l2.6-5.1l7.8,3.3
	l13.5-23.7l5.3-12.6l8.5-20.6l9.1-29.7l-2.3-0.8c3.9-12.4,4.3-16.5,16.8-28.6c12.5-12.1,21.3-15.6,21.3-15.6l1.1,1.6l28.2-12.3
	l-0.7-1.4c0,0,12.1-5.9,15-6.8c2.9-0.9,16.8-3.7,16.8-3.7l1,1.7l27.1-8.1l-0.2-1.7L409,125l0.7,1.2l32.1-10.4l-0.5-1.2l21-7.2
	l0.5,1.2l33.7-10.3C496.5,98.3,494.2,94.5,491.8,93.7z"/>
<path class="st15" d="M148.5,335.1l0.4,0.9c0,0,0.3,0.2,0.3,0.6v0.4c0,0.3,0.1,0.7,0.3,0.9c0.6,0.6,1.2-0.7,1.8-0.3
	c0.6,0.4-0.1,1.9-0.1,1.9l0.7,1.5l-0.1,2.9c0,1-0.8-0.2-0.8-0.2l-0.4-2c0,0-0.1-1.5-0.9-1.1c-0.8,0.4,0.3,3.8,0.4,6.1
	c0.1,1.5-2.3,7.9-0.2,9.1c0,1-0.2,1.5-0.2,2.2c0,1.6-0.6,0.6-0.5,1.1c0.1,1.4,1,1.2,1.1,1.8c0.4,2.4-0.8-0.7-0.8,1.7
	c0,1.7,1.7,2.4,2.8,3.7c1.8,2.1,1.9,4,3.8,6l1.6,1.7c0.2,0.1,0.7,0.9,0.3,1.6s0.1,4.3,0.1,4.3s0.8,4-0.4,7.7
	c-1.2,3.8-5.3,8.4-5.3,8.4s-1.1,1-1.4,1.6c-0.4,0.8-0.6,2.3-0.6,2.3s0.2,10.8,1.9,15.6c1.7,4.7,5.1,15.7,6.9,16.5
	c1.8,0.8,2.3,0,4.2,0.4s5.5-0.8,6.5-1.4s2.5-3,3.5-3s4.6-0.9,4.6-0.9l0.8,0.5c0,0-2.2,1.1-4.1,1.7c-1.9,0.6-2.3,2.2-3.4,2.3
	c-1.2,0.1-3.9,1.5-3.9,1.5l7.1,0.2c1.6,0,9.1,2,9.4,1l0.7,1c0,0-8.1-0.8-8.9-1c-0.8-0.2-7.1-0.5-8.4-0.2c-1.3,0.3-6.3,1.3-6.5,2.7
	c-0.2,1.4,3.6,13.1,6.3,13.6s8.7-0.1,9.5,0.4s11,0.3,16.5,2.7c0,0,11.2,2.9,14.1,3.5c2.8,0.6,8.6,4.5,15.9,6.7
	c7.3,2.2,30-0.7,32-1.1s8.2-0.3,8.2-0.3l0.5,1c0,0-7.5,1-9.8,1.7c-2.2,0.6-30.4,1.4-30.4,1.4l-1,1l-1.7,0.1l0.4-2.1
	c0,0-10.9-4.4-13.5-5.3c-2.6-0.8-11.3-3.3-11.3-3.3s-4.7-0.9-9-2.5c-2.7-1-5,0.3-7.9-0.4c-2.9-0.7-10.8-0.9-10.2,1
	c3,8.9,4.4,24.8,5.5,25s5.3,0.6,5.3,0.6l0.4,1.4c0,0-5-1.2-5.8,0.2c-0.9,1.4-1.6,11-1.8,13.1c-0.5,4.6,5.9,18.2,5.5,20.4
	s-0.5,4.1-1.4,5.5c-1.6,2.2-4.6,3.8-5.6,5c-1,1.3-6.3,11.3-7.2,14.1c-0.9,2.7-2.9,7.2-4.8,10.6c-1.9,3.3-8.4,11.5-7,17
	c1.5,5.5,3.9,6.4,5.3,9.8c1.4,3.5,0.9,9.3,1.8,10.9l1.9,3.3l-2.2,2.1c0,0-1.8-1.8-2-3.1c-0.3-1.3-0.9-7.3-1.9-12.1
	c-1-4.7-5-9.2-5.6-10.8s0.5-6.1,2.4-9.2c1.9-3.1,8.1-16.8,12.9-27.7c1.2-2.7,1.6-5.6,2.9-6.9c1.3-1.3,7.6-5.3,7.5-7.8
	c-0.1-2.4-2-9.1-3.4-12.9s-2.5-9.6-2.1-11.9s2-9.8,1.3-14.9s-1.5-10.2-2.3-11.1c-0.8-0.8-0.8-2.6-1.3-3.7
	c-1.2-2.9-6.5-13.5-7.6-16.3s-5.2-12.5-6.2-15.9s-4-8.5-5-12.3s-2.5-13.5-2.6-15.5c-0.4-4.9,5.7-13.2,7.4-18.5
	c1.8-5.9-0.3-5.2-1.4-8.3c-1.1-3-1.8-4.9-4-7.2c-0.9-0.9-2-0.7-2.9-1.6c-1.4-1.4-0.2-3.1-0.4-5.1c-0.4-3.5-2.5-5.1-3.1-8.6
	c-0.3-1.8,0.7-3.4-0.6-4.7c-0.5-0.5-1.1-0.6-1.6-1.1c-0.3-0.3-0.6-0.7-0.3-0.9c1-0.9,2.5-1.5,3.5-0.6c1.7,1.8,0.7,4,0,6.4l0.6,0.2
	l0.6-0.6c1.1-1,0.2-2.4,0.5-3.9c0.8-3.9-0.8-6-0.4-10.2l-0.3-0.4L148.5,335.1z"/>
<path class="st15" d="M307.7,175.6c0,0-1,4.3,0.6,8.2c1.7,3.9,5.2,7.6,5.5,9.2c0.3,1.6,0.1,4.7-1.7,5.7c-1.7,1-7.4,3.8-8.7,3
	c-1.3-0.7-9-7.7-12.6-7.4s-4.3,1.6-5.7,2c-1.4,0.5-3.9,0.5-5.3,1.1s-4.1,4.9-5.1,4.6c-1-0.3-12.3-4.8-11.6-5.9
	c2.8-4.5,42.3-22.3,42.3-22.3s0.9,0,1.5,0.6C307.5,174.9,307.7,175.6,307.7,175.6z"/>
<polygon class="st5" points="157.3,448.1 265.4,396.8 266.2,398.8 158.2,450.2 148.3,471.5 146.6,470.9 "/>
<text transform="matrix(0.9 0 0 1 457.6758 184.458)" class="st0 st1 st2">H</text>
<text transform="matrix(0.9 0 0 1 460.4785 137.8057)" class="st0 st1 st2">D</text>
<text transform="matrix(0.9 0 0 1 281.2412 253.8896)" class="st0 st1 st2">17</text>
<text transform="matrix(0.9 0 0 1 391.0586 344.2637)" class="st0 st1 st2">B</text>
<path class="st11" d="M339.2,235.7l6.2-6.2c-1.5-1.3-3.1-2.6-4.8-3.7l-4.9,4.8l-5.2-5.3l0.1-0.1l0.4,0.4l10.1-10.1l-5.2-5.3
	l-3.5,3.5c0,0-0.6-0.3-1,0.1c-0.3,0.3-0.1,1-0.1,1l-1.3,1.3l1.4,1.4l-4.1,4.1l0.2,0.8l-1.1,1.1l-0.8-0.1l-7.1,7l3.8,3.9l6.9-6.8
	l-0.4-0.5l0.9-0.9l5.2,5.3l-1.2,1.2l-0.5,20.3c2.5,0,5.6,0,8.2,0l0-4.2l-2.6-0.2L339.2,235.7z"/>
<text transform="matrix(0.9 0 0 1 373.6523 380.6069)" class="st0 st1 st2">G</text>
<text transform="matrix(0.9 0 0 1 323.7158 328.6411)" class="st0 st1 st2">10</text>
<text transform="matrix(0.9 0 0 1 322.2109 356.1855)" class="st0 st1 st2">13</text>
<text transform="matrix(0.9 0 0 1 322.7764 473.7607)" class="st0 st1 st2">K</text>
<text transform="matrix(0.9 0 0 1 320.0225 248.2002)" class="st0 st1 st2">18</text>
<text transform="matrix(0.9 0 0 1 336.876 233.9189)" class="st0 st1 st2">7</text>
<text transform="matrix(0.9 0 0 1 280.0498 340.7959)" class="st0 st1 st2">22</text>
<text transform="matrix(0.9 0 0 1 279.4009 327.563)" class="st0 st1 st2">1</text>
<text transform="matrix(0.9 0 0 1 282.1011 327.563)" class="st0 st1 st2">2</text>
<text transform="matrix(0.9 0 0 1 280.8999 313.9932)" class="st0 st1 st2">1</text>
<text transform="matrix(0.9 0 0 1 283.3999 313.9932)" class="st0 st1 st2">1</text>
<text transform="matrix(0.9 0 0 1 278.7271 394.1143)" class="st0 st1 st2">2</text>
<text transform="matrix(0.9 0 0 1 281.5273 394.1143)" class="st0 st1 st2">1</text>
<text transform="matrix(0.9 0 0 1 322.6299 382.8462)" class="st0 st1 st2">15</text>
<text transform="matrix(0.9 0 0 1 279.6641 368.4438)" class="st0 st1 st2">16</text>
<text transform="matrix(0.9 0 0 1 394.5039 315.6191)" class="st0 st1 st2">B</text>
<text transform="matrix(0.9 0 0 1 391.6191 196.436)" class="st0 st1 st2">9</text>
<text transform="matrix(0.9 0 0 1 334.8926 265.8301)" class="st0 st1 st2">5</text>
<text transform="matrix(0.9 0 0 1 318.168 396.2651)" class="st0 st1 st2">23</text>
<text transform="matrix(0.9 0 0 1 499.6416 136.0488)" class="st0 st1 st2">C</text>
<text transform="matrix(0.9 0 0 1 357.7432 420.1709)" class="st0 st1 st2">E</text>
<text transform="matrix(0.9 0 0 1 487.4678 135.043)" class="st0 st1 st2">I</text>
<text transform="matrix(0.9 0 0 1 296.3491 394.5498)" class="st0 st1 st2">1</text>
<text transform="matrix(0.9 0 0 1 299.4492 394.5498)" class="st0 st1 st2">4</text>
<text transform="matrix(0.9 0 0 1 359.8594 172.6128)" class="st0 st1 st2">19</text>
<text transform="matrix(0.9 0 0 1 331.8701 198.8936)" class="st0 st1 st2">20</text>
<text transform="matrix(0.9 0 0 1 329.1641 224.2759)" class="st0 st1 st2">7</text>
<text transform="matrix(0.9 0 0 1 375.5889 355.7139)" class="st0 st1 st2">F</text>
<text transform="matrix(0.9 0 0 1 308.6641 415.5352)" class="st0 st1 st2">J</text>
<text transform="matrix(0.9 0 0 1 322.8711 310.6729)" class="st0 st1 st2">25</text>
<text transform="matrix(0.9 0 0 1 301.4697 269.8604)" class="st0 st1 st2">24</text>
<text transform="matrix(0.9 0 0 1 109.6548 488.3711)" class="st0 st1 st2">N</text>
<text transform="matrix(0.9 0 0 1 328.9912 430.7695)" class="st0 st1 st2">P</text>
<text transform="matrix(0.9 0 0 1 255.333 259.2949)" class="st0 st1 st2">P</text>
<path class="st4" d="M367.4,391.3"/>
<path class="st4" d="M367.4,393"/>
<path class="st4" d="M367.3,394.7"/>
<path class="st4" d="M368,381"/>
<path class="st4" d="M367.8,384.5"/>
<path class="st4" d="M367.7,386.2"/>
<path class="st4" d="M355.5,371.2"/>
<path class="st4" d="M368.1,379.3"/>
<path class="st4" d="M357.9,365.1"/>
<path class="st4" d="M358.8,365.2"/>
<path class="st4" d="M358.8,367.7"/>
<path class="st4" d="M368.3,374.2"/>
<path class="st4" d="M358.8,368.6"/>
<path class="st4" d="M355.4,372.1"/>
<path class="st4" d="M355.3,383.9"/>
<path class="st4" d="M355.1,389"/>
<path class="st16" d="M368.5,360.1"/>
<path class="st4" d="M369.9,333.1"/>
<path class="st4" d="M369.7,336.7"/>
<path class="st4" d="M369.6,338.4"/>
<path class="st4" d="M368.7,354.2"/>
<path class="st4" d="M364.6,338.2"/>
<path class="st4" d="M365.8,352.4"/>
<path class="st5" d="M374.4,150l-0.8-2.1l3.5-1.5l0.8,1.5l19.2-6.3l8.8,8.8l6.1-6l0.5,0.5l-6.7,6.7l-1.7-1.7c0,0-1.6,1.1-3.6-0.6
	c-0.9-0.8-0.1-3.2-0.1-3.2l-3.3-3.4L374.4,150z"/>
<text transform="matrix(0.9 0 0 1 366.7432 312.0684)" class="st0 st1 st2">P</text>
<text transform="matrix(0.9 0 0 1 142.2969 488.2256)" class="st0 st1 st2">M</text>
<path class="st3" d="M130.4,498.2c-0.4,1-1.3,1.6-2,1.3c-0.8-0.3-1.1-1.3-0.7-2.3l1.2-3.3c0.4-1,1.3-1.6,2-1.3
	c0.8,0.3,1.1,1.3,0.7,2.3L130.4,498.2z"/>
<text transform="matrix(0.9 0 0 1 209.0029 421.335)" class="st0 st1 st2">L</text>
<text transform="matrix(0.9 0 0 1 346.7529 185.478)" class="st0 st1 st2">26</text>
<text transform="matrix(0.9 0 0 1 320.1279 265.9941)" class="st0 st1 st2">5</text>
<text transform="matrix(0.6364 -0.6364 0.7071 0.7071 375.6031 148.9715)" class="st0 st1 st2">P</text>
<text transform="matrix(0.9 0 0 1 440.6035 231.7021)" class="st0 st1 st2">P</text>
<text transform="matrix(0.9 0 0 1 337.2793 290.8564)" class="st0 st1 st2">P</text>
<text transform="matrix(0.9 0 0 1 265.6738 313.0479)" class="st0 st1 st2">27</text>
<text transform="matrix(0.9 0 0 1 453.6318 270.8569)" class="st0 st1 st2">Hospital</text>
<text transform="matrix(0.9 0 0 1 393.0479 426.3975)" class="st0 st1 st2">A</text>
<text transform="matrix(0.9 0 0 1 404.376 439.2168)" class="st0 st1 st2">A</text>
<text transform="matrix(0.9 0 0 1 363.0537 208.604)" class="st0 st1 st2">8</text>
<text transform="matrix(0.9 0 0 1 367.9316 192.1538)" class="st0 st1 st2">8</text>
<text transform="matrix(0.9 0 0 1 467.4863 160.9482)" class="st0 st1 st2">1</text>
<text transform="matrix(0.9 0 0 1 440.3945 210.9839)" class="st0 st1 st2">3</text>
<text transform="matrix(0.9 0 0 1 440.29 188.7358)" class="st0 st1 st2">2</text>
<text transform="matrix(0.9 0 0 1 278.6372 286.4111)" class="st0 st1 st2">6</text>
<text transform="matrix(0.9 0 0 1 344.3662 208.0811)" class="st0 st1 st2">4</text>
<text transform="matrix(0.9 0 0 1 348.4268 221.5947)" class="st0 st1 st2">4</text>
<text transform="matrix(0.9 0 0 1 361.6943 355.438)" class="st0 st1 st2">P</text>
<text transform="matrix(0.9 0 0 1 279.9639 355.9751)" class="st0 st1 st2">28</text>
<text transform="matrix(0.9 0 0 1 322.2988 369.9502)" class="st0 st1 st2">29</text>
<text transform="matrix(0.9 0 0 1 403.3564 145.9248)" class="st0 st1 st2">O</text>
<line class="st17" x1="332" y1="525.5" x2="330.6" y2="528.5"/>
<line class="st17" x1="508.8" y1="215.1" x2="508.8" y2="211.9"/>
<polyline class="st7" points="508.8,212.1 507.4,212.1 508.8,208.6 510.2,212.1 508.8,212.1 "/>
<text transform="matrix(0.9 0 0 1 185.9678 229.2471)" class="st0 st1 st2">N</text>
<line class="st18" x1="170.9" y1="240.8" x2="180.8" y2="232.4"/>
<polyline class="st11" points="180.8,232.4 178,231.6 184.7,229.2 181.2,235.4 180.8,232.4 "/>
<text transform="matrix(0.9 0 0 1 390.4512 273.9814)" class="st0 st1 st2">Seminário</text>
<polygon class="st11" points="510.4,112 534,112.7 535,123.2 513,125.2 "/>
<text transform="matrix(0.9 0 0 1 520.0576 119.7422)" class="st0 st1 st2">Q</text>
<rect x="302.1" y="306.9" transform="matrix(3.492869e-02 -0.9994 0.9994 3.492869e-02 -13.6503 603.8142)" class="st15" width="7.5" height="4.2"/>
<rect x="303.9" y="316.1" transform="matrix(3.518064e-02 -0.9994 0.9994 3.518064e-02 -22.7598 611.7803)" class="st15" width="3.2" height="3.2"/>
<path class="st11" d="M101,476c7.6,2.7,15.1,5.3,22.7,8c2-5.7,4-11.3,6-17c-7.7-2.6-15.3-5.1-23-7.7
	C104.8,464.9,102.9,470.4,101,476z"/>
<polygon class="st11" points="93.1,498.7 95.1,493.4 121.8,503 119.8,508.3 "/>
<polygon class="st11" points="90.5,506.2 92.5,500.9 119.1,510.5 117.2,515.8 "/>
<rect x="56.8" y="465.1" transform="matrix(0.9439 0.3303 -0.3303 0.9439 157.9127 6.9885)" class="st11" width="3.1" height="6.2"/>
<rect x="59.2" y="458.3" transform="matrix(0.9439 0.3303 -0.3303 0.9439 155.7884 5.8145)" class="st11" width="3.1" height="6.2"/>
<rect x="61.6" y="451.6" transform="matrix(0.9439 0.3303 -0.3303 0.9439 153.7149 4.6685)" class="st11" width="3.1" height="6.2"/>
<rect x="64" y="444.6" transform="matrix(0.9439 0.3303 -0.3303 0.9439 151.5404 3.4668)" class="st11" width="3.1" height="6.2"/>
<rect x="66.4" y="437.7" transform="matrix(0.9439 0.3303 -0.3303 0.9439 149.4095 2.2891)" class="st11" width="3.1" height="6.2"/>
<rect x="68.8" y="431" transform="matrix(0.9439 0.3303 -0.3303 0.9439 147.3313 1.1406)" class="st11" width="3.1" height="6.2"/>
<path class="st13" d="M90.3,491.7c-1.7,4.4-3.3,8.7-5,13.1c-7.1-2.9-14.2-5.8-21.3-8.6c1.4-4.3,2.8-8.6,4.1-12.9
	C75.6,486,82.9,488.8,90.3,491.7z"/>
<rect x="87.4" y="486.6" transform="matrix(0.9439 0.3303 -0.3303 0.9439 171.8367 -0.8454)" class="st5" width="2" height="37.3"/>
<text transform="matrix(0.9 0 0 1 74.9912 496.05)" class="st0 st1 st2">P</text>
<text transform="matrix(0.9 0 0 1 112.6579 473.761)" class="st0 st1 st2">41</text>
<text transform="matrix(0.9 0 0 1 103.8155 503.0943)" class="st0 st1 st2">30</text>
<text transform="matrix(0.9 0 0 1 103.8155 511.0943)" class="st0 st1 st2">30</text>
<text transform="matrix(0.9 0 0 1 62.7647 453.3701)" class="st0 st1 st2">B</text>
<path class="st11" d="M356.4,208.7"/>
</svg>
